<?xml version="1.0" standalone="no"?>
<!DOCTYPE svg PUBLIC "-//W3C//DTD SVG 20010904//EN"
 "http://www.w3.org/TR/2001/REC-SVG-20010904/DTD/svg10.dtd">
<svg version="1.0" xmlns="http://www.w3.org/2000/svg"
 width="512.000000pt" height="512.000000pt" viewBox="0 0 512.000000 512.000000"
 preserveAspectRatio="xMidYMid meet">
<metadata>
Created by potrace 1.11, written by Peter Selinger 2001-2013
</metadata>
<g transform="translate(0.000000,512.000000) scale(0.100000,-0.100000)"
fill="#000000" stroke="none">
<path d="M2477 4924 c-1 -1 -45 -4 -97 -8 -112 -7 -228 -22 -325 -42 -38 -9
-79 -17 -89 -19 -134 -28 -383 -123 -544 -206 -105 -54 -341 -204 -387 -246
-11 -10 -43 -36 -70 -58 -91 -72 -274 -265 -359 -378 -94 -126 -221 -333 -238
-389 -19 -64 22 -128 84 -128 52 0 75 20 120 103 183 342 471 646 801 846 240
145 551 260 797 296 24 4 47 8 51 10 28 18 415 26 546 12 286 -31 516 -98 778
-227 301 -148 564 -362 763 -620 23 -30 45 -59 50 -65 20 -26 88 -134 103
-162 11 -21 13 -33 6 -33 -6 0 -64 18 -128 40 -64 22 -127 41 -140 43 -92 15
-145 -96 -78 -162 17 -17 36 -31 42 -31 7 0 127 -38 268 -85 141 -47 269 -85
285 -85 37 0 68 21 82 57 11 27 66 252 76 310 3 15 15 64 26 108 28 112 26
150 -6 180 -15 14 -33 26 -40 26 -8 1 -20 2 -26 3 -25 4 -67 -16 -81 -37 -11
-18 -50 -163 -63 -236 -12 -67 -13 -67 -65 20 -100 169 -236 338 -394 491
-343 330 -822 568 -1290 639 -38 6 -81 12 -95 15 -51 8 -357 23 -363 18z"/>
<path d="M2391 4199 c-108 -43 -194 -103 -282 -196 -103 -109 -216 -292 -279
-453 l-20 -50 319 0 319 0 0 355 c0 389 3 368 -57 344z"/>
<path d="M2660 3856 l0 -356 319 0 320 0 -25 58 c-137 312 -300 514 -493 611
-31 16 -71 32 -88 36 l-33 7 0 -356z"/>
<path d="M1773 4041 c-242 -127 -435 -286 -587 -486 l-38 -50 213 -3 c117 -1
215 1 219 5 4 5 19 42 35 83 59 159 146 318 252 463 19 26 31 47 26 47 -4 0
-58 -27 -120 -59z"/>
<path d="M3210 4092 c0 -4 9 -18 20 -30 78 -83 241 -386 281 -519 l12 -43 219
0 219 0 -33 47 c-32 46 -247 267 -298 308 -70 55 -221 148 -307 190 -54 27
-101 50 -105 52 -5 2 -8 0 -8 -5z"/>
<path d="M994 3231 c-43 -91 -101 -283 -118 -388 -25 -162 -26 -173 -13 -174
57 -4 561 -3 567 1 4 3 11 55 15 115 3 61 8 124 10 140 12 85 35 232 39 250 2
11 9 39 14 63 5 23 9 43 8 44 0 0 -112 2 -248 3 l-247 2 -27 -56z"/>
<path d="M1721 3201 c-11 -47 -23 -102 -26 -121 -3 -19 -8 -42 -10 -50 -2 -8
-7 -42 -10 -75 -4 -33 -10 -87 -14 -120 -3 -33 -6 -84 -6 -114 l0 -54 393 -1
c341 -1 393 1 396 14 3 8 4 148 4 311 l0 295 -354 1 -353 0 -20 -86z"/>
<path d="M2662 2976 l3 -310 370 -1 c204 0 382 2 396 3 25 4 26 6 23 55 -8
127 -24 264 -39 337 -30 150 -38 188 -45 206 -8 20 -12 21 -359 21 l-351 0 2
-311z"/>
<path d="M3590 3279 c0 -4 7 -38 15 -74 9 -37 18 -85 21 -108 3 -23 9 -64 14
-92 9 -47 11 -75 25 -255 4 -41 8 -77 11 -79 2 -3 133 -5 290 -5 l286 -1 -5
65 c-15 165 -63 345 -138 510 l-21 47 -249 0 c-137 0 -249 -4 -249 -8z"/>
<path d="M859 2449 c-5 -3 -8 -12 -5 -20 3 -8 7 -41 10 -75 13 -134 67 -326
131 -465 l25 -56 248 1 c176 1 246 4 245 12 -1 6 -4 22 -7 35 -2 13 -9 51 -15
84 -6 33 -13 69 -15 80 -2 11 -7 49 -11 85 -3 36 -8 72 -10 80 -2 8 -7 64 -10
125 -4 60 -8 112 -11 114 -7 7 -564 7 -575 0z"/>
<path d="M1658 2449 c-11 -7 0 -182 18 -294 3 -16 7 -44 10 -62 2 -18 13 -74
25 -125 12 -51 24 -102 26 -114 5 -21 7 -21 356 -20 l352 1 1 310 2 310 -390
0 c-215 0 -394 -3 -400 -6z"/>
<path d="M2660 2144 l0 -311 351 0 c348 0 351 1 359 22 9 23 46 206 56 270 3
22 7 51 9 65 4 23 8 64 20 213 3 31 0 47 -8 48 -7 1 -186 2 -400 3 l-387 1 0
-311z"/>
<path d="M3669 2430 c-2 -85 -25 -307 -40 -392 -17 -97 -20 -112 -29 -153 -5
-22 -10 -43 -10 -46 0 -3 111 -6 248 -6 l247 0 18 36 c62 124 128 357 143 500
3 36 8 69 11 74 6 9 12 9 -309 11 l-278 1 -1 -25z"/>
<path d="M375 1790 c-49 -19 -55 -34 -120 -320 -2 -8 -15 -65 -29 -127 -33
-140 -33 -164 0 -202 48 -57 139 -33 163 42 5 17 17 68 27 112 9 44 20 84 24
88 3 4 24 -21 45 -55 312 -510 863 -908 1465 -1057 103 -25 183 -41 238 -47
31 -3 59 -7 62 -9 9 -6 185 -16 280 -17 80 -1 281 10 318 16 15 3 51 9 137 22
108 17 380 95 480 138 253 109 418 207 605 357 245 196 469 466 605 725 34 66
36 73 26 111 -9 32 -19 44 -47 58 -64 30 -109 5 -154 -85 -37 -72 -141 -228
-214 -320 -63 -79 -214 -234 -296 -305 -152 -131 -408 -285 -594 -356 -28 -11
-60 -24 -71 -29 -57 -25 -299 -90 -395 -105 -19 -3 -46 -7 -60 -10 -65 -12
-169 -18 -320 -19 -173 -1 -250 5 -384 29 -131 24 -136 25 -245 56 -428 124
-814 375 -1093 709 -76 90 -187 249 -221 316 l-16 31 157 -53 c86 -29 172 -54
190 -54 47 0 92 46 92 94 0 68 -20 79 -310 175 -292 96 -316 103 -345 91z"/>
<path d="M1918 1620 l-108 -5 44 -96 c102 -229 217 -387 356 -494 74 -57 187
-114 226 -115 8 0 12 98 12 355 l0 354 -212 3 c-116 2 -259 1 -318 -2z"/>
<path d="M2703 1622 l-43 -3 0 -355 c0 -399 -7 -370 83 -330 209 92 386 298
517 598 18 43 31 80 29 83 -6 5 -521 12 -586 7z"/>
<path d="M3575 1622 l-50 -3 -29 -77 c-66 -175 -155 -340 -247 -459 -46 -59
-47 -61 -20 -52 70 25 324 168 351 199 3 3 25 21 50 39 60 45 257 246 298 304
l33 47 -43 0 c-24 0 -99 2 -168 3 -69 1 -147 1 -175 -1z"/>
<path d="M1150 1616 c0 -9 119 -153 171 -206 148 -152 355 -293 553 -378 28
-12 29 -12 15 7 -143 199 -197 294 -270 481 l-38 95 -215 3 c-119 1 -216 0
-216 -2z"/>
</g>
</svg>
